<?xml version="1.0" encoding="UTF-8"?>
<svg id="Layer_1" xmlns="http://www.w3.org/2000/svg" version="1.1" viewBox="0 0 200 201">
  <!-- Generator: Adobe Illustrator 30.1.0, SVG Export Plug-In . SVG Version: 2.1.1 Build 136)  -->
  <defs>
    <style>
      .st0 {
        fill: #fff;
      }
    </style>
  </defs>
  <path class="st0" d="M200,100c0,50.5-37.4,92.3-86.1,99.1v-67.6h22.7l4.3-29.4h-27v-21.8c0-5.2,4.2-9.4,9.4-9.4h17.5v-25.4h-26.8s0,0-.1,0h0c-16.5,0-29.9,13.4-29.9,29.9v26.7h-24.9v29.4h24.9v67.3c2.6.4,5.2.7,7.9,1-2.7-.2-5.3-.5-7.9-1C36.4,191.1,0,149.8,0,100S44.8,0,100,0s100,44.8,100,100Z"/>
</svg>