<?xml version="1.0" encoding="UTF-8"?>
<svg id="Layer_1" xmlns="http://www.w3.org/2000/svg" version="1.1" viewBox="0 0 201 201">
  <!-- Generator: Adobe Illustrator 30.1.0, SVG Export Plug-In . SVG Version: 2.1.1 Build 136)  -->
  <defs>
    <style>
      .st0 {
        fill: #fff;
      }
    </style>
  </defs>
  <path class="st0" d="M100.4.4h-.5C44.9.4.2,45.1.2,100.2v.4c0,55.1,44.7,99.8,99.8,99.8h.5c55.1,0,99.8-44.7,99.8-99.8v-.4C200.2,45.1,155.5.4,100.4.4ZM69.8,155.9h-23.7v-75h23.7v75ZM68.1,66.9c-2.6,2.4-6,3.7-10,3.7s-7.5-1.2-10.2-3.7c-2.6-2.4-3.9-5.5-3.9-9.1s1.3-6.8,3.9-9.2c2.6-2.4,6-3.7,10.2-3.7s7.4,1.2,10,3.7c2.6,2.5,4,5.5,4,9.2s-1.3,6.6-4,9.1ZM156.5,154.6h-22.5v-40.1c0-4.9-1.3-8.8-3.8-11.5-2.6-2.7-6-4.1-10.3-4.1s-7.8,1.4-10.3,4.1c-2.6,2.7-3.8,6.6-3.8,11.5v40.1h-22.6v-73.9h22.6v9.8c2.3-3.3,5.4-5.8,9.3-7.8,3.9-1.9,8.2-2.8,13.1-2.8,8.7,0,15.6,2.8,20.7,8.4,5.2,5.6,7.7,13.3,7.7,23.1v43.2Z"/>
</svg>